<svg class="css-82n8sf eks92ln0" focusable="false" xmlns="http://www.w3.org/2000/svg" viewBox="0 0 64 64" color="text.default" fill="rgb(243, 117, 109)" aria-hidden="true"><path d="M48.818 28.266H15.665V8.478a1.81 1.81 0 0 1 1.812-1.812h29.528a1.81 1.81 0 0 1 1.813 1.812v19.788Zm-31.212-1.941H46.86V8.624H17.606v17.7Z"></path><path d="M52.555 56a.974.974 0 0 1-.97-.972c0-11.795-1.473-15.128-2.767-18.056-.939-2.12-1.812-4.11-1.926-8.705H17.606c-.113 4.579-.986 6.585-1.925 8.704-1.294 2.945-2.767 6.278-2.767 18.057 0 .534-.437.971-.97.971a.974.974 0 0 1-.971-.97c0-12.2 1.553-15.728 2.944-18.85.955-2.152 1.78-4.013 1.78-8.883v-.971h33.137v.97c0 4.871.825 6.732 1.78 8.884 1.375 3.122 2.945 6.65 2.945 18.85-.033.533-.47.97-1.004.97Z"></path><path d="M38.478 37.052H26.02a4.081 4.081 0 0 1-4.078-4.077v-6.65h20.614v6.65c-.016 2.25-1.828 4.077-4.078 4.077Zm-14.594-8.785v4.708c0 1.181.955 2.136 2.136 2.136h12.458a2.134 2.134 0 0 0 2.136-2.136v-4.708h-16.73Z"></path><path fill-rule="evenodd" clip-rule="evenodd" d="M17.478 7C16.66 7 16 7.66 16 8.48v19.454h32.487V8.48c0-.819-.66-1.478-1.48-1.478H17.479Zm-2.145 1.48c0-1.188.958-2.146 2.145-2.146h29.529c1.187 0 2.145.958 2.145 2.145v20.122h-33.82V8.479Zm1.941-.188h29.92v18.367h-29.92V8.292Zm.667.666v17.035h28.587V8.958H17.94Z"></path><path fill-rule="evenodd" clip-rule="evenodd" d="M15.365 25.993H49.17v1.304c0 2.416.204 4.072.522 5.382.318 1.31.751 2.29 1.229 3.366l.013.03c.687 1.558 1.429 3.244 1.997 6.06.57 2.826.963 6.782.963 12.895v.02c-.043.698-.615 1.284-1.336 1.284a1.307 1.307 0 0 1-1.305-1.304c0-5.886-.367-9.644-.891-12.289-.523-2.637-1.203-4.176-1.847-5.633-.927-2.093-1.797-4.082-1.944-8.507H17.932c-.148 4.409-1.018 6.413-1.945 8.506l-.005.012c-.643 1.462-1.32 3.004-1.841 5.634-.525 2.645-.892 6.4-.892 12.277 0 .718-.586 1.304-1.304 1.304a1.307 1.307 0 0 1-1.304-1.304c0-6.113.389-10.068.957-12.895.57-2.833 1.317-4.522 2.016-6.09.478-1.077.91-2.055 1.229-3.366.318-1.31.522-2.966.522-5.382v-1.304Zm.667.667v.637c0 2.454-.208 4.164-.541 5.54-.333 1.372-.788 2.398-1.264 3.471l-.004.007c-.692 1.554-1.417 3.19-1.972 5.952-.556 2.767-.944 6.675-.944 12.763 0 .35.288.637.638.637a.64.64 0 0 0 .637-.637c0-5.902.369-9.704.905-12.407.535-2.701 1.236-4.296 1.884-5.771l.006-.013c.928-2.096 1.786-4.058 1.897-8.58l.009-.325h29.936l.008.326c.112 4.537.97 6.482 1.897 8.578.65 1.471 1.354 3.063 1.89 5.773.536 2.703.905 6.509.905 12.419 0 .35.288.637.638.637.343 0 .643-.283.67-.648-.001-6.081-.392-9.986-.95-12.752-.554-2.745-1.274-4.378-1.955-5.926l-.012-.026-.003-.007c-.476-1.073-.931-2.1-1.264-3.472-.333-1.375-.541-3.085-.541-5.539v-.637h-32.47Z"></path><path fill-rule="evenodd" clip-rule="evenodd" d="M21.61 25.993h21.28v6.986c-.017 2.429-1.975 4.408-4.41 4.408H26.02a4.414 4.414 0 0 1-4.41-4.41v-6.984Zm.667.667v6.316a3.748 3.748 0 0 0 3.744 3.744H38.48c2.062 0 3.728-1.676 3.744-3.745V26.66H22.277Zm1.275 1.274h17.397v5.042a2.467 2.467 0 0 1-2.47 2.47H26.022a2.467 2.467 0 0 1-2.469-2.47v-5.041Zm.667.667v4.375a1.8 1.8 0 0 0 1.802 1.803H38.48a1.8 1.8 0 0 0 1.802-1.803v-4.375H24.22Z"></path></svg>