<svg class="css-82n8sf eks92ln0" focusable="false" xmlns="http://www.w3.org/2000/svg" viewBox="0 0 64 64" color="text.default" fill="rgb(243, 117, 109)" aria-hidden="true"><path fill-rule="evenodd" clip-rule="evenodd" d="M30.352 9.066a1.167 1.167 0 0 1 2.216.003l5.479 16.651c.036.11.138.184.253.184h17.852a1.167 1.167 0 0 1 .679 2.116L42.4 38.33a.267.267 0 0 0-.098.301l5.512 16.635a1.167 1.167 0 0 1-1.786 1.317l-14.416-10.29a.267.267 0 0 0-.31 0l-14.457 10.29a1.167 1.167 0 0 1-1.784-1.317l5.513-16.636a.267.267 0 0 0-.098-.3L6.087 28.02a1.167 1.167 0 0 1 .68-2.116h17.812a.267.267 0 0 0 .254-.183l5.519-16.655Zm1.356 4.857a.267.267 0 0 0-.506 0l-4.48 13.515c-.158.478-.604.8-1.107.8H11.23a.267.267 0 0 0-.155.483l11.62 8.326c.415.297.588.83.427 1.315L18.657 51.84a.267.267 0 0 0 .407.3l11.719-8.34c.405-.288.95-.288 1.355.001l11.671 8.33a.267.267 0 0 0 .408-.3l-4.462-13.468c-.161-.485.013-1.019.429-1.316l11.65-8.324a.267.267 0 0 0-.155-.484H37.262c-.504 0-.95-.324-1.108-.802l-4.446-13.513Z"></path></svg>