<svg class="css-82n8sf eks92ln0" focusable="false" xmlns="http://www.w3.org/2000/svg" viewBox="0 0 64 64" color="text.default" fill="rgb(243, 117, 109)" aria-hidden="true"><path fill-rule="evenodd" clip-rule="evenodd" d="M25.581 11.993a5.12 5.12 0 0 1 4.18-5.085 17.051 17.051 0 0 1 5.718 0 5.12 5.12 0 0 1 4.18 5.085v10.279h7.086a2.037 2.037 0 0 1 2.035 2.036v17.988a16.957 16.957 0 0 0 1.67 8.376 27.334 27.334 0 0 1 1.41 3.742 1.239 1.239 0 0 1-2.38.684 24.618 24.618 0 0 0-1.294-3.426 18.58 18.58 0 0 1-1.864-8.136H18.92c.003 2.818-.634 5.6-1.864 8.136a24.61 24.61 0 0 0-1.294 3.43 1.24 1.24 0 0 1-1.533.85 1.238 1.238 0 0 1-.848-1.53c.377-1.284.85-2.537 1.413-3.75a17.01 17.01 0 0 0 1.666-8.376V24.308a2.04 2.04 0 0 1 2.039-2.036h7.082v-10.28Zm.364 24.012a10.69 10.69 0 0 0 6.674 1.902 10.694 10.694 0 0 0 6.676-1.902 1.228 1.228 0 0 0 .365-.874V24.749h6.643v16.309H18.938V24.749h6.643v10.382a1.227 1.227 0 0 0 .364.874Zm6.674-.573a9.61 9.61 0 0 1-4.56-.904V11.993a2.647 2.647 0 0 1 2.134-2.649 14.766 14.766 0 0 1 4.854 0 2.647 2.647 0 0 1 2.136 2.649v22.535a9.616 9.616 0 0 1-4.564.904Z"></path></svg>