<svg class="css-82n8sf eks92ln0" focusable="false" xmlns="http://www.w3.org/2000/svg" viewBox="0 0 64 64" color="text.default" fill="rgb(243, 117, 109)" aria-hidden="true"><path fill-rule="evenodd" clip-rule="evenodd" d="m30.37 5.333 17.104.053c.835.003 1.622.56 1.844 1.398h5.131c.953 0 1.86.598 2.16 1.567l.444 1.429c.078.25.134.506.17.765L60 31.268v1.811c0 .95-.733 1.656-1.576 1.758l-.744.09c-1.891.23-3.738-1.006-4.056-2.944l-2.358-14.4c-.043-.264-.314-.55-.74-.55h-1.41l-.322 11.487v.006l-.652 23.306a6.21 6.21 0 0 1-.338 1.931c-.275.767-.83 2.112-1.706 3.073-.302.332-.687.545-1.005.688-.337.15-.712.271-1.089.37-.753.198-1.632.34-2.472.443-1.687.207-3.37.278-3.912.296-.138.005-.27.007-.398.007l-13.47.027c-.14 0-.283-.001-.433-.006a45.383 45.383 0 0 1-3.874-.299c-.832-.105-1.706-.25-2.465-.451-.686-.182-1.544-.474-2.102-1.02-.499-.488-.869-1.12-1.133-1.664a12.501 12.501 0 0 1-.616-1.548 6.284 6.284 0 0 1-.29-1.794l-.622-23.359v-.008l-.264-9.891a5.324 5.324 0 0 0-.147-1.109L9.376 7.463C9.121 6.406 9.97 5.56 10.88 5.55l19.49-.216ZM14.928 30.167l.578 21.647c.01.393.06.736.158 1.037.116.354.279.796.48 1.211.21.43.418.745.595.92 0-.001 0 0 0 0 0-.001.057.044.219.116.174.076.409.157.706.236.596.158 1.337.284 2.115.383a42.71 42.71 0 0 0 3.63.278c.108.004.218.005.338.005l13.47-.027c.109 0 .211-.001.311-.005a45.29 45.29 0 0 0 3.678-.278c.789-.097 1.534-.221 2.121-.375a4.52 4.52 0 0 0 .676-.225c.088-.04.133-.067.149-.077.488-.55.891-1.449 1.142-2.15.114-.317.17-.682.183-1.106l.603-21.592c-.156.019-.327.038-.512.057v2.244c0 .88-.586 1.74-1.614 1.898l-.093.014c-1.186.183-3.034.469-13.486.469-10.128 0-12.191-.297-13.36-.481-1.023-.161-1.608-1.02-1.61-1.897v.002l1.334-.005h-1.333m-.008-2.246a33.165 33.165 0 0 1-.47-.053m3.137.254.005 1.402c1.247.155 4.003.357 12.305.357 8.728 0 11.331-.2 12.526-.356V30.42c-2.561.139-6.49.245-12.526.245-5.923 0-9.786-.105-12.31-.244Zm28.773-3.092a.06.06 0 0 1-.004.001l.004-.001Zm-31.982.138c.185.027.413.057.695.088.347.038.767.077 1.276.115 2.312.173 6.388.328 13.548.328 7.27 0 11.412-.155 13.761-.328a32.312 32.312 0 0 0 2.02-.206l.324-11.588c.025-.905.783-1.51 1.564-1.51h2.482c1.626 0 3.1 1.131 3.372 2.787l2.358 14.4c.066.401.495.789 1.077.73v-.837L54.58 10.899a2.008 2.008 0 0 0-.072-.329l-.348-1.12H48.2c-.736 0-1.454-.562-1.504-1.4L30.38 8l-18.082.2 2.1 8.692c.132.546.206 1.103.22 1.664l.238 8.91Z"></path></svg>