<svg class="css-82n8sf eks92ln0" focusable="false" xmlns="http://www.w3.org/2000/svg" viewBox="0 0 64 64" color="text.default" fill="rgb(243, 117, 109)" aria-hidden="true"><path fill-rule="evenodd" d="M49.152 25.992V8.48a2.142 2.142 0 0 0-2.146-2.146H17.478a2.142 2.142 0 0 0-2.146 2.146V28.6h.011c-.06 1.732-.243 3.018-.5 4.079-.318 1.31-.752 2.289-1.23 3.365-.698 1.569-1.446 3.258-2.015 6.09-.569 2.827-.958 6.783-.958 12.895 0 .718.586 1.304 1.304 1.304.719 0 1.305-.586 1.305-1.304 0-5.877.367-9.632.891-12.277.522-2.63 1.2-4.172 1.842-5.634l.005-.01c.926-2.094 1.797-4.098 1.944-8.507H46.57c.148 4.424 1.018 6.413 1.945 8.506.644 1.457 1.324 2.996 1.847 5.633.524 2.645.891 6.404.891 12.289 0 .718.586 1.304 1.304 1.304.722 0 1.294-.586 1.336-1.284v-.02c0-6.113-.392-10.068-.962-12.895-.568-2.816-1.31-4.501-1.998-6.06l-.012-.03c-.478-1.075-.911-2.055-1.23-3.365-.317-1.311-.522-2.966-.522-5.383v-1.304h-.016Zm-2.624 0V8.958H17.94v17.034h28.587Z" clip-rule="evenodd"></path></svg>