<svg class="css-82n8sf eks92ln0" focusable="false" xmlns="http://www.w3.org/2000/svg" viewBox="0 0 64 64" color="text.default" fill="rgb(243, 117, 109)" aria-hidden="true"><path opacity=".32" fill-rule="evenodd" clip-rule="evenodd" d="M24.876 6.584a.042.042 0 0 0-.043.041v6.652H39.48v-6.65a.042.042 0 0 0-.042-.043H24.876Zm-2.543.041a2.542 2.542 0 0 1 2.543-2.541h14.562a2.543 2.543 0 0 1 2.542 2.542v7.901c0 1.234.48 3.22 1.025 5.156.158.562.308 1.072.447 1.547.102.348.199.677.289.994.102.356.191.683.257.956.054.23.126.551.126.828V32a1.25 1.25 0 0 1-2.5 0V24.03v.002c-.002 0-.011-.075-.058-.27-.052-.219-.13-.504-.23-.853-.076-.268-.17-.588-.271-.935-.147-.503-.311-1.063-.466-1.614-.404-1.433-.845-3.13-1.03-4.583H24.73v.006l-2.044 23.659a1.25 1.25 0 0 1-2.495-.108h1.25-1.25V24.007c0-.552.185-1.325.377-2.045.146-.548.328-1.176.515-1.822l.228-.787c.407-1.417.77-2.782.933-3.833l.09-1.047V6.625Z"></path><path fill-rule="evenodd" clip-rule="evenodd" d="M24.875 6.334a.292.292 0 0 0-.293.291v6.902H39.73v-6.9a.292.292 0 0 0-.293-.293H24.875Zm12.792 9.193h3.063a1 1 0 0 0 1-1v-7.9a2.292 2.292 0 0 0-2.293-2.293H24.875a2.292 2.292 0 0 0-2.293 2.291v7.902a1 1 0 0 0 1 1h2.751v2.807a2 2 0 0 0 2 2h7.334a2 2 0 0 0 2-2v-2.807Zm-9.334 0v2.807h7.334v-2.807h-7.334ZM41.705 29.975a1.68 1.68 0 0 1 2.415 1.513V53.16c0 1.524-.3 3.032-.884 4.44l-.31.747a2.543 2.543 0 0 1-2.349 1.57H23.728a2.543 2.543 0 0 1-2.349-1.57l-.31-.748a11.593 11.593 0 0 1-.883-4.439V41.47c0-.644.367-1.231.946-1.513l20.573-9.982Zm-.085 2.82-18.934 9.188V53.16c0 1.195.235 2.378.692 3.482l.31.748a.043.043 0 0 0 .04.026h16.85c.017 0 .032-.01.039-.026l.31-.748a9.092 9.092 0 0 0 .693-3.482V32.796Z"></path></svg>