<svg class="css-82n8sf eks92ln0" focusable="false" xmlns="http://www.w3.org/2000/svg" viewBox="0 0 64 64" color="text.default" fill="rgb(243, 117, 109)" aria-hidden="true"><path d="M32.638 7.87c3.577 0 7.135.76 10.379 2.183l-2.752.057c-.315 0-.59.133-.806.342a1.011 1.011 0 0 0-.315.797c.02.608.531 1.102 1.16 1.102l7.214-.171c.433-.02.786-.228.983-.589a1.126 1.126 0 0 0-.02-1.139L44.746 4.53c-.334-.531-1.041-.683-1.611-.36a1.15 1.15 0 0 0-.393 1.556l1.513 2.373a27.833 27.833 0 0 0-11.598-2.506C17.6 5.592 5.334 17.42 5.334 31.98c0 5.334 1.651 10.498 4.757 14.883.216.323.57.494.963.494.236 0 .452-.057.649-.19.255-.17.432-.418.491-.721a1.04 1.04 0 0 0-.196-.836C9.148 41.586 7.634 36.878 7.634 32 7.654 18.69 18.878 7.87 32.638 7.87Zm22.605 9.226c-.393-.512-1.1-.645-1.631-.284a1.115 1.115 0 0 0-.315 1.575c2.85 4.025 4.364 8.733 4.364 13.612 0 13.308-11.204 24.128-24.984 24.128a25.92 25.92 0 0 1-10.379-2.183l2.752-.057c.315 0 .59-.133.806-.342a1.01 1.01 0 0 0 .314-.797c0-.304-.137-.57-.373-.797a1.087 1.087 0 0 0-.826-.304l-7.174.171a1.19 1.19 0 0 0-1.003.589c-.197.36-.197.778.04 1.12l3.734 5.922a1.18 1.18 0 0 0 1.612.38c.55-.323.727-1.006.393-1.556L21.08 55.9c3.637 1.67 7.549 2.505 11.598 2.505C47.734 58.405 60 46.578 60 32.018c.02-5.354-1.631-10.517-4.757-14.922Z"></path><path d="m25.334 42.734.2-3.76h.36c.482.632 1.017 1.22 1.6 1.76a8 8 0 0 0 1.92 1.36 6.84 6.84 0 0 0 2.44.72v-9.96a12.719 12.719 0 0 1-4.52-3.08 6.12 6.12 0 0 1-1.68-4.24 5.48 5.48 0 0 1 1.76-4 7.28 7.28 0 0 1 4.44-1.92v-2.28h2.12v2.28a8.481 8.481 0 0 1 4.72 1.96v3.44h-.44a8.481 8.481 0 0 0-4.4-2.76v8.52c4.587 1.787 6.88 4.213 6.88 7.28a7.24 7.24 0 0 1-1.88 4.96 7.48 7.48 0 0 1-4.72 2.48v2.36h-2.12v-2.28a9.6 9.6 0 0 1-6.68-2.84Zm3.2-17.28a3.36 3.36 0 0 0 .84 2.2 8.24 8.24 0 0 0 2.48 1.96v-7.56a4 4 0 0 0-2.4 1.16 3.08 3.08 0 0 0-.72 2.24h-.2Zm5.44 8.4v8.88a4 4 0 0 0 2.44-1.48 4.36 4.36 0 0 0 .92-2.8 4 4 0 0 0-.84-2.52 8.52 8.52 0 0 0-2.52-2.08Z"></path></svg>