<svg class="css-82n8sf eks92ln0" focusable="false" xmlns="http://www.w3.org/2000/svg" viewBox="0 0 64 64" color="text.default" fill="rgb(243, 117, 109)" aria-hidden="true"><path d="m60.456 30.73-7.028-11.487c-.584-.977-1.925-1.702-3.076-1.702h-11.6V14.46c0-1.364-1.133-2.459-2.508-2.459H5.174c-1.391 0-2.508 1.112-2.508 2.46v30.452c0 1.364 1.134 2.459 2.526 2.459H7.96c.532 3.368 3.523 5.962 7.097 5.962 3.591 0 6.564-2.593 7.097-5.962h19.796c.533 3.368 3.523 5.962 7.097 5.962 3.592 0 6.547-2.577 7.097-5.945h2.68c1.41-.017 2.51-1.095 2.51-2.476V33.829c0-.96-.361-2.274-.877-3.1Zm-1.323 3.116v.303H47.757a.367.367 0 0 1-.223-.084c-.086-.085-.086-.085-.103-.573v-3.807c0-2.071.017-4.16.017-4.16 0-.168.137-.303.31-.303h.016c.258.017 4.675.017 6.72.017v-.034l4.055 6.636c.326.489.584 1.415.584 2.005Zm-44.06 17.55c-2.87 0-5.207-2.29-5.207-5.103 0-2.813 2.337-5.104 5.207-5.104 2.87 0 5.207 2.274 5.207 5.104 0 2.813-2.337 5.103-5.207 5.103Zm21.463-6.484a.305.305 0 0 1-.31.303h-14.09c-.533-3.369-3.506-5.946-7.097-5.946-3.592 0-6.565 2.594-7.097 5.946h-2.75c-.137 0-.31-.068-.31-.388v-4.665l-.016-25.686a.35.35 0 0 1 .086-.219.288.288 0 0 1 .223-.084h31.052c.086 0 .154.034.223.084s.086.135.086.219v30.436Zm12.527 6.484c-2.87 0-5.207-2.29-5.207-5.103 0-2.813 2.337-5.104 5.207-5.104 2.87 0 5.207 2.274 5.207 5.104 0 2.813-2.337 5.103-5.207 5.103Zm9.984-6.265c-.103.1-.103.084-.893.1h-2.028c-.516-3.368-3.506-5.979-7.097-5.979-3.592 0-6.565 2.594-7.097 5.946h-2.887a.305.305 0 0 1-.31-.303V19.697h11.617c.378 0 .98.32 1.186.657l1.667 2.712h-5.448c-1.374 0-2.491 1.095-2.491 2.442v8.354c0 1.365 1.1 2.443 2.508 2.443h11.36v8.607a.288.288 0 0 1-.087.219Z"></path></svg>