<svg class="css-82n8sf eks92ln0" focusable="false" xmlns="http://www.w3.org/2000/svg" viewBox="0 0 64 64" color="text.default" fill="rgb(243, 117, 109)" aria-hidden="true"><path d="m51.569 28.72 9.07-14.686c.682-1.11.869-2.4.528-3.66a5.015 5.015 0 0 0-2.382-3.046c-.8-.43-1.6-.629-2.655-.662-1.753.033-3.336.944-4.221 2.434L29.495 46.7a.857.857 0 0 0-.136.398l-.766 9.222a.933.933 0 0 0 .476.877c.307.166.732.166 1.021-.033l7.897-5.248a.915.915 0 0 0 .273-.298L48.999 33.72c.153-.215.187-.48.136-.745a.941.941 0 0 0-.426-.596.96.96 0 0 0-.748-.066c-.273.083-.477.232-.596.447l-9.82 16.325-5.463-3.063L51.33 13.72l5.413 3.03-6.825 11.027a.888.888 0 0 0-.085.696.95.95 0 0 0 .425.58c.204.115.46.148.715.082.255-.066.477-.215.596-.414Zm-15.08 21.922-5.82 3.907.562-6.854 5.259 2.947Zm15.794-38.529 1.26-2.086c.51-.844 1.344-1.39 2.331-1.49l.17-.017h.17c.58 0 1.141.133 1.635.414.766.43 1.31 1.11 1.514 1.904a2.802 2.802 0 0 1-.34 2.236l-1.293 2.07-5.447-3.03ZM4 56.42v.033a.952.952 0 0 0 .323.63.963.963 0 0 0 .681.248h17.462c.238 0 .493-.1.68-.282.188-.182.307-.413.307-.645a.865.865 0 0 0-.306-.646c-.137-.133-.358-.282-.63-.282H4.902c-.46.034-.902.48-.902.944Z"></path></svg>