

 
 <svg class="css-82n8sf expsv8r0" focusable="false" xmlns="http://www.w3.org/2000/svg" viewBox="0 0 48 48" color="text.default" aria-hidden="true" width="48"><path fill="#F3756D" fill-rule="evenodd" d="M15.024 19.49c0-.539.437-.975.976-.975h16.5a.975.975 0 0 1 .974.975v.525H35.5a2.475 2.475 0 0 1 2.474 2.475v3a2.475 2.475 0 0 1-2.474 2.475h-2.026v.525a.975.975 0 0 1-.974.975H16a.975.975 0 0 1-.976-.975v-.525H13a2.475 2.475 0 0 1-2.476-2.475v-3A2.475 2.475 0 0 1 13 20.015h2.024v-.525Zm0 2.475H13a.525.525 0 0 0-.525.525v3c0 .29.235.525.524.525h2.025v-4.05Zm1.95 5.55h14.55v-7.05h-14.55v7.05Zm16.5-5.55v4.05H35.5c.29 0 .525-.235.525-.525v-3a.525.525 0 0 0-.526-.525h-2.025Z" clip-rule="evenodd"></path><path fill="#F3756D" fill-rule="evenodd" d="M32.053 2.083a.975.975 0 0 1 1.264.55l2.127 5.407-5.408 2.127a.975.975 0 1 1-.713-1.814l2.521-.992A18.285 18.285 0 0 0 8.585 33.418a.975.975 0 1 1-1.671 1.004A20.235 20.235 0 0 1 32.326 5.44l-.824-2.093a.975.975 0 0 1 .55-1.264Zm8.194 11.141a.975.975 0 0 1 1.338.334A20.235 20.235 0 0 1 16.154 42.53l.815 2.107a.975.975 0 0 1-1.819.704l-1.74-4.5a.975.975 0 0 1 .55-1.259l4.47-1.77a.975.975 0 1 1 .718 1.813l-2.5.99a18.286 18.286 0 0 0 23.266-26.054.975.975 0 0 1 .333-1.338Z" clip-rule="evenodd"></path></svg>