<svg class="css-82n8sf expsv8r0" focusable="false"  xmlns="http://www.w3.org/2000/svg" width="48" viewBox="0 0 48 48" color="text.default" aria-hidden="true"><path fill="#F3756D" d="m24.64 6.341-.003-.002A1.01 1.01 0 0 0 23.87 6h-.047a.867.867 0 0 0-.677.34c-.125.138-12.422 15.46-12.422 22.668a13.139 13.139 0 1 0 26.274 0c0-7.127-12.236-22.512-12.359-22.667Zm10.41 22.667v.128a11.19 11.19 0 0 1-22.377-.128c0-5.858 9.906-18.81 11.188-20.461 2.666 3.494 11.19 15.088 11.19 20.46Z"></path><path fill="#F3756D" d="M23.697 34.892a.979.979 0 1 0 .004 1.958 8.213 8.213 0 0 0 8.202-8.202.98.98 0 0 0-1.958 0 6.251 6.251 0 0 1-6.244 6.244h-.004Z"></path></svg>