<svg class="css-82n8sf expsv8r0" focusable="false" xmlns="http://www.w3.org/2000/svg" viewBox="0 0 48 48" color="text.default" width="48" aria-hidden="true"><path fill="#F3756D" d="M42.113 8.387a16.864 16.864 0 0 0-13.736 2.515 12.898 12.898 0 0 0-3.902 5.482 12.898 12.898 0 0 0-3.902-5.353A16.734 16.734 0 0 0 6.837 8.516.967.967 0 0 0 6 9.548a12.479 12.479 0 0 0 5.127 10.125 14.252 14.252 0 0 0 8.383 2.515 16.898 16.898 0 0 0 3.837-.484v17.283a1.031 1.031 0 0 0 2.032 0V21.543c1.331.319 2.694.491 4.063.516 2.989.062 5.922-.818 8.383-2.515a12.479 12.479 0 0 0 5.127-10.125.967.967 0 0 0-.838-1.032Zm-1.225 1.838A10.415 10.415 0 0 1 36.63 17.9a13.51 13.51 0 0 1-10.93 1.677 11.576 11.576 0 0 1 3.965-7.094 14.544 14.544 0 0 1 11.222-2.257ZM23.25 19.576A13.51 13.51 0 0 1 12.319 17.9a10.416 10.416 0 0 1-4.257-7.674 14.51 14.51 0 0 1 11.222 2.257 11.575 11.575 0 0 1 3.966 7.094Z"></path></svg>